<svg xmlns="http://www.w3.org/2000/svg" width="560" height="600" viewBox="0 0 560 600" font-family="ui-monospace,SFMono-Regular,Menlo,Consolas,'Liberation Mono',monospace">
<style>
  .t { fill:#c9d1d9; font-size:15px; }
  .m { fill:#7d8590; }
  .a { fill:#39d353; font-weight:700; }
  .ln { opacity:0; animation:show .01s linear forwards; }
  @keyframes show { to { opacity:1; } }
  
  .t { font-size:16px; }
  .cov { transform-box:fill-box; transform-origin:right; animation-name:wipe; animation-timing-function:steps(20); animation-fill-mode:forwards; }
  @keyframes wipe { to { transform:scaleX(0); } }
  .cur { opacity:0; animation:blink 1s step-end infinite; }
  @keyframes blink { 0%,100% { opacity:1; } 50% { opacity:0; } }

  @media (prefers-reduced-motion: reduce) { * { animation:none !important; opacity:1 !important; clip-path:none !important; } .cov { display:none; } }
</style>
<rect x=".5" y=".5" width="559" height="599" rx="10" fill="#0d1117" stroke="#30363d"/>
<path d="M.5 10.5a10 10 0 0 1 10-10h539a10 10 0 0 1 10 10V32H.5z" fill="#161b22"/>
<line x1="0" y1="32" x2="560" y2="32" stroke="#30363d"/>
<circle cx="20" cy="16" r="6" fill="#ff5f57"/><circle cx="40" cy="16" r="6" fill="#febc2e"/><circle cx="60" cy="16" r="6" fill="#28c840"/>
<text x="280.0" y="21" text-anchor="middle" class="m" font-size="13">lucas@github: ~ — neofetch</text>
<text class="t ln" x="28" y="66" style="animation-delay:0.30s"><tspan class="a">lucas@github</tspan></text><rect class="cov" x="26" y="48" width="532" height="24" fill="#0d1117" style="animation-delay:0.30s;animation-duration:0.15s"/>
<text class="t ln" x="28" y="94" style="animation-delay:0.50s"><tspan class="m">────────────</tspan></text><rect class="cov" x="26" y="76" width="532" height="24" fill="#0d1117" style="animation-delay:0.50s;animation-duration:0.15s"/>
<text class="t ln" x="28" y="122" style="animation-delay:0.69s"><tspan class="a">OS</tspan><tspan class="m">:</tspan><tspan x="172.0">macOS · iOS · Android</tspan></text><rect class="cov" x="26" y="104" width="532" height="24" fill="#0d1117" style="animation-delay:0.69s;animation-duration:0.34s"/>
<text class="t ln" x="28" y="150" style="animation-delay:1.08s"><tspan class="a">Host</tspan><tspan class="m">:</tspan><tspan x="172.0">Tom Explore — Vannes, FR</tspan></text><rect class="cov" x="26" y="132" width="532" height="24" fill="#0d1117" style="animation-delay:1.08s;animation-duration:0.35s"/>
<text class="t ln" x="28" y="178" style="animation-delay:1.48s"><tspan class="a">Role</tspan><tspan class="m">:</tspan><tspan x="172.0">Apprentice developer · UX designer</tspan></text><rect class="cov" x="26" y="160" width="532" height="24" fill="#0d1117" style="animation-delay:1.48s;animation-duration:0.35s"/>
<text class="t ln" x="28" y="206" style="animation-delay:1.88s"><tspan class="a">Studies</tspan><tspan class="m">:</tspan><tspan x="172.0">Master COdUX — Université de Limoges</tspan></text><rect class="cov" x="26" y="188" width="532" height="24" fill="#0d1117" style="animation-delay:1.88s;animation-duration:0.35s"/>
<text class="t ln" x="28" y="234" style="animation-delay:2.28s"><tspan class="a">Studio</tspan><tspan class="m">:</tspan><tspan x="172.0">Studio Granit — web design, Brittany</tspan></text><rect class="cov" x="26" y="216" width="532" height="24" fill="#0d1117" style="animation-delay:2.28s;animation-duration:0.35s"/>
<text class="t ln" x="28" y="262" style="animation-delay:2.68s"><tspan class="a">Stack</tspan><tspan class="m">:</tspan><tspan x="172.0">Swift · SwiftUI · Kotlin · Flutter</tspan></text><rect class="cov" x="26" y="244" width="532" height="24" fill="#0d1117" style="animation-delay:2.68s;animation-duration:0.35s"/>
<text class="t ln" x="28" y="290" style="animation-delay:3.08s"><tspan class="a">Tools</tspan><tspan class="m">:</tspan><tspan x="172.0">Xcode · VS Code · Figma · PostHog</tspan></text><rect class="cov" x="26" y="272" width="532" height="24" fill="#0d1117" style="animation-delay:3.08s;animation-duration:0.35s"/>
<text class="t ln" x="28" y="318" style="animation-delay:3.48s"><tspan class="a">Web</tspan><tspan class="m">:</tspan><tspan x="172.0">lucas-torres.com</tspan></text><rect class="cov" x="26" y="300" width="532" height="24" fill="#0d1117" style="animation-delay:3.48s;animation-duration:0.30s"/>
<text class="t ln" x="28" y="360" style="animation-delay:3.83s"><tspan class="m">── GitHub · last 12 months ──</tspan></text><rect class="cov" x="26" y="342" width="532" height="24" fill="#0d1117" style="animation-delay:3.83s;animation-duration:0.28s"/>
<text class="t ln" x="28" y="388" style="animation-delay:4.16s"><tspan class="a">Contributions</tspan><tspan class="m">:</tspan><tspan x="172.0">142</tspan></text><rect class="cov" x="26" y="370" width="532" height="24" fill="#0d1117" style="animation-delay:4.16s;animation-duration:0.19s"/>
<text class="t ln" x="28" y="416" style="animation-delay:4.40s"><tspan class="a">Active days</tspan><tspan class="m">:</tspan><tspan x="172.0">22</tspan></text><rect class="cov" x="26" y="398" width="532" height="24" fill="#0d1117" style="animation-delay:4.40s;animation-duration:0.19s"/>
<text class="t ln" x="28" y="444" style="animation-delay:4.64s"><tspan class="a">Streak</tspan><tspan class="m">:</tspan><tspan x="172.0">3 days (best 6 days)</tspan></text><rect class="cov" x="26" y="426" width="532" height="24" fill="#0d1117" style="animation-delay:4.64s;animation-duration:0.33s"/>
<text class="t ln" x="28" y="472" style="animation-delay:5.02s"><tspan class="a">Best day</tspan><tspan class="m">:</tspan><tspan x="172.0">35 on 16 Mar 2026</tspan></text><rect class="cov" x="26" y="454" width="532" height="24" fill="#0d1117" style="animation-delay:5.02s;animation-duration:0.31s"/>
<g class="ln" style="animation-delay:5.38s"><rect x="28" y="498" width="28" height="18" rx="3" fill="#161b22"/><rect x="62" y="498" width="28" height="18" rx="3" fill="#0e4429"/><rect x="96" y="498" width="28" height="18" rx="3" fill="#006d32"/><rect x="130" y="498" width="28" height="18" rx="3" fill="#26a641"/><rect x="164" y="498" width="28" height="18" rx="3" fill="#39d353"/><rect x="198" y="498" width="28" height="18" rx="3" fill="#c9d1d9"/><rect x="232" y="498" width="28" height="18" rx="3" fill="#7d8590"/></g>
<rect class="cur" x="28" y="528" width="10" height="18" fill="#c9d1d9" style="animation-delay:5.38s"/>
<text x="536" y="584" text-anchor="end" class="m" font-size="12">updated 2026-10-09</text>
</svg>